# xmcd
#
# Track frame offsets: 
#        150
#        15877
#        29849
#        41940
#        57857
#        75385
#
# Disc length: 1161 seconds
#
# Revision: 3
# Processed by: cddbd v1.5.2PL0 Copyright (c) Steve Scherf et al.
# Submitted via: ExactAudioCopy v1.3
#
DISCID=41048706
DTITLE=Taylor Swift - The Taylor Swift Holiday Collection
DYEAR=2007
DGENRE=Holiday
TTITLE0=Last Christmas
TTITLE1=Christmases When You Were Mine
TTITLE2=Santa Baby
TTITLE3=Silent Night
TTITLE4=Christmas Must Be Something More
TTITLE5=White Christmas
EXTD=YEAR: 2009
EXTT0=
EXTT1=
EXTT2=
EXTT3=
EXTT4=
EXTT5=
PLAYORDER=
